<svg xmlns="http://www.w3.org/2000/svg" width="128" height="64" viewBox="0 0 128 64"><path fill="#242E30" d="M24 11c-.6.3-1.2.4-1.9.5.7-.4 1.2-1 1.4-1.8-.6.4-1.3.6-2.1.8-.6-.6-1.5-1-2.4-1-1.8 0-3.3 1.5-3.3 3.3 0 .3 0 .5.1.7-2.7-.1-5.1-1.4-6.8-3.4-.3.5-.4 1-.4 1.7 0 1.1.6 2.1 1.5 2.7-.5 0-1-.2-1.5-.4 0 1.6 1.1 2.9 2.6 3.2-.4.3-1 .3-1.5 0 .4 1.3 1.6 2.3 3.1 2.3-1.1.9-2.5 1.4-4.1 1.4h-.8c1.5.9 3.2 1.5 5 1.5 6 0 9.3-5 9.3-9.3v-.4c.8-.5 1.4-1.1 1.8-1.8zM78 16v8h3v-8h2l1-3h-3v-1.3c0-.3.2-.7.7-.7H84V8h-3.3C79 8 78 9.3 78 10.8v2.3h-2v3h2V16zM112 24c-4.4 0-8-3.6-8-8s3.6-8 8-8 8 3.6 8 8-3.6 8-8 8zm6.7-6.9c-.2-.1-2.1-.6-4.3-.3.9 2.5 1.1 3.7 1.3 4.9 1.7-1.1 2.7-2.7 3-4.6zm-4 5.2c-.2-1.2-.5-2.7-1.5-5.2-3.9 1.3-5.2 4-5.4 4.3 1.6 1.3 4.2 1.8 6.9.9zm-7.8-1.7c1.6-3.1 5.8-4.6 5.9-4.6l-.6-1.2c-3.4 1-6.7 1-7 1-.1 1.9.6 3.6 1.7 4.8zm-1.6-6c.3 0 3.1 0 6.3-.8-1.1-2-2.3-3.7-2.5-4-1.9.9-3.3 2.7-3.8 4.8zm5.1-5.2c.2.3 1.4 1.9 2.5 4 2.4-.9 3.5-2.3 3.6-2.5-1.2-1.1-3.5-2-6.1-1.5zm6.9 2.3c-.1.2-1.3 1.7-3.8 2.7.2.3.4.9.6 1.4 2.3-.3 4 0 4.8.2 0-1.8-.7-3.2-1.6-4.3zM50.8 17.1c-.6 0-1.1.7-1.1 1.6s.5 1.6 1.1 1.6 1.1-.7 1.1-1.6c0-.9-.5-1.6-1.1-1.6zm3.9-4c.1-.3.1-2.1-.6-3.8 0 0-1.6.2-4 1.8-.5-.1-1.3-.2-2.2-.2s-1.7.1-2.2.2c-2.4-1.6-4-1.8-4-1.8-.7 1.7-.7 3.5-.6 3.8-.6.8-1.1 1.9-1.1 3.3 0 6.2 5.2 6.3 6.5 6.3h3c1.3 0 6.5-.1 6.5-6.3 0-1.4-.5-2.5-1.3-3.3zM48 22c-3.3 0-5.9-.4-5.9-3.6 0-.8.3-1.5.9-2.1 1.1-1 2.9-.5 4.9-.5 2.1 0 3.9-.5 4.9.5.6.6.9 1.3.9 2.1.2 3.2-2.4 3.6-5.7 3.6zm-2.8-4.9c-.6 0-1.1.7-1.1 1.6s.5 1.6 1.1 1.6 1.1-.7 1.1-1.6c.1-.9-.4-1.6-1.1-1.6z"/><path fill="#fff" d="M24 43c-.6.3-1.2.4-1.9.5.7-.4 1.2-1 1.4-1.8-.6.4-1.3.6-2.1.8-.6-.6-1.5-1-2.4-1-1.8 0-3.3 1.5-3.3 3.3 0 .3 0 .5.1.7-2.7-.1-5.1-1.4-6.8-3.4-.3.5-.4 1-.4 1.7 0 1.1.6 2.1 1.5 2.7-.5 0-1-.2-1.5-.4 0 1.6 1.1 2.9 2.6 3.2-.4.3-1 .3-1.5 0 .4 1.3 1.6 2.3 3.1 2.3-1.1.9-2.5 1.4-4.1 1.4h-.8c1.5.9 3.2 1.5 5 1.5 6 0 9.3-5 9.3-9.3v-.4c.8-.5 1.4-1.1 1.8-1.8zM78 48v8h3v-8h2l1-3h-3v-1.3c0-.3.2-.7.7-.7H84v-3h-3.3C79 40 78 41.3 78 42.8v2.3h-2v3l2-.1zM112 56c-4.4 0-8-3.6-8-8s3.6-8 8-8 8 3.6 8 8-3.6 8-8 8zm6.7-6.9c-.2-.1-2.1-.6-4.3-.3.9 2.5 1.1 3.7 1.3 4.9 1.7-1.1 2.7-2.7 3-4.6zm-4 5.2c-.2-1.2-.5-2.7-1.5-5.2-3.9 1.3-5.2 4-5.4 4.3 1.6 1.3 4.2 1.8 6.9.9zm-7.8-1.7c1.6-3.1 5.8-4.6 5.9-4.6l-.6-1.2c-3.4 1-6.7 1-7 1-.1 1.9.6 3.6 1.7 4.8zm-1.6-6c.3 0 3.1 0 6.3-.8-1.1-2-2.3-3.7-2.5-4-1.9.9-3.3 2.7-3.8 4.8zm5.1-5.2c.2.3 1.4 1.9 2.5 4 2.4-.9 3.5-2.3 3.6-2.5-1.2-1.1-3.5-2-6.1-1.5zm6.9 2.3c-.1.2-1.3 1.7-3.8 2.7.2.3.4.9.6 1.4 2.3-.3 4 0 4.8.2 0-1.8-.7-3.2-1.6-4.3zM50.8 49.1c-.6 0-1.1.7-1.1 1.6 0 .9.5 1.6 1.1 1.6s1.1-.7 1.1-1.6c0-.9-.5-1.6-1.1-1.6zm3.9-4c.1-.3.1-2.1-.6-3.8 0 0-1.6.2-4 1.8-.5-.1-1.3-.2-2.2-.2s-1.7.1-2.2.2c-2.4-1.6-4-1.8-4-1.8-.7 1.7-.7 3.5-.6 3.8-.6.8-1.1 1.9-1.1 3.3 0 6.2 5.2 6.3 6.5 6.3h3c1.3 0 6.5-.1 6.5-6.3 0-1.4-.5-2.5-1.3-3.3zM48 54c-3.3 0-5.9-.4-5.9-3.6 0-.8.3-1.5.9-2.1 1.1-1 2.9-.5 4.9-.5 2.1 0 3.9-.5 4.9.5.6.6.9 1.3.9 2.1.2 3.2-2.4 3.6-5.7 3.6zm-2.8-4.9c-.6 0-1.1.7-1.1 1.6 0 .9.5 1.6 1.1 1.6s1.1-.7 1.1-1.6c.1-.9-.4-1.6-1.1-1.6z"/></svg>